<svg xmlns="http://www.w3.org/2000/svg" fill="currentColor" height="12" viewBox="0 0 12 12" width="12" focusable="false" aria-hidden="true" style="pointer-events: none; display: inherit; width: 100%; height: 100%;"><path d="m5 4 3 2-3 2V4Z"/><path clip-rule="evenodd" d="M9 6a3 3 0 00-.879-2.12l.707-.708a4 4 0 010 5.657l-.707-.707A3 3 0 009 6ZM3 6a3 3 0 01.879-2.12l-.707-.708a4 4 0 000 5.657l.707-.707A3 3 0 013 6Z" fill-rule="evenodd"/><path clip-rule="evenodd" d="M11 6a5 5 0 00-1.464-3.535l.707-.707a6 6 0 010 8.485l-.707-.707A5 5 0 0011 6ZM1 6a5 5 0 011.464-3.535l-.707-.707a6 6 0 000 8.485l.707-.707A5 5 0 011 6Z" fill-rule="evenodd"/></svg>